# xmcd
#
# Track frame offsets:
#	150
#	17438
#	33507
#	49007
#	65374
#	81112
#	97238
#	114178
#	127105
#	142938
#	155580
#	167684
#
# Disc length: 2408 seconds
#
# Revision: 1
# Processed by: cddbd v1.5.2PL0 Copyright (c) Steve Scherf et al.
# Submitted via: audiograbber 1.83.01
#
DISCID=9709660c
DTITLE=Jadi Norris - Man Of Steel
DYEAR=1900
DGENRE=Country
TTITLE0=Man Of Steel
TTITLE1=Company Man
TTITLE2=Hail The American Soldier
TTITLE3=Make Hay
TTITLE4=Life Of Me
TTITLE5=Now I'm Country
TTITLE6=Brown-eyed Girl
TTITLE7=Wish I Was A Cowboy
TTITLE8=Idaho Rodeo
TTITLE9=Trudy, Sweet Trudy
TTITLE10=Aint' That The Way
TTITLE11=Wrong Mrs. Right
EXTD=
EXTT0=
EXTT1=
EXTT2=
EXTT3=
EXTT4=
EXTT5=
EXTT6=
EXTT7=
EXTT8=
EXTT9=
EXTT10=
EXTT11=
PLAYORDER=
